<svg width="207" height="175" viewBox="0 0 207 175" fill="none" xmlns="http://www.w3.org/2000/svg">
<path d="M105.482 68.704C105.482 79.7547 101.562 89.0507 93.7223 96.592C85.957 103.984 76.1383 107.68 64.2663 107.68C52.3943 107.68 42.5756 103.984 34.8103 96.592C26.9703 89.0507 23.0503 79.7547 23.0503 68.704C23.0503 63.552 24.021 58.512 25.9623 53.584C27.9783 48.656 30.9276 44.3627 34.8103 40.704C42.5756 33.312 52.3943 29.616 64.2663 29.616C76.1383 29.616 85.957 33.312 93.7223 40.704C97.605 44.3627 100.517 48.656 102.458 53.584C104.474 58.512 105.482 63.552 105.482 68.704ZM64.2663 48.432C58.1436 48.432 53.1036 50.4107 49.1463 54.368C45.189 58.2507 43.2103 63.1413 43.2103 69.04C43.2103 74.4907 45.189 79.12 49.1463 82.928C53.253 86.8853 58.293 88.864 64.2663 88.864C70.389 88.864 75.3916 86.9227 79.2743 83.04C83.3063 79.008 85.3223 74.2293 85.3223 68.704C85.3223 63.0293 83.3063 58.2507 79.2743 54.368C75.093 50.4107 70.0903 48.432 64.2663 48.432ZM137.224 31.296V62.096L160.968 31.296H184.936L155.256 66.688L187.624 106H162.536L137.224 73.632V106H117.848V31.296H137.224Z" fill="white"/>
<path d="M39.9856 133.339C39.9856 135.016 39.3906 136.427 38.2006 137.572C37.022 138.694 35.5316 139.255 33.7296 139.255C31.9276 139.255 30.4373 138.694 29.2586 137.572C28.0686 136.427 27.4736 135.016 27.4736 133.339C27.4736 132.557 27.621 131.792 27.9156 131.044C28.2216 130.296 28.6693 129.644 29.2586 129.089C30.4373 127.967 31.9276 127.406 33.7296 127.406C35.5316 127.406 37.022 127.967 38.2006 129.089C38.79 129.644 39.232 130.296 39.5266 131.044C39.8326 131.792 39.9856 132.557 39.9856 133.339ZM33.7296 130.262C32.8003 130.262 32.0353 130.562 31.4346 131.163C30.834 131.752 30.5336 132.495 30.5336 133.39C30.5336 134.217 30.834 134.92 31.4346 135.498C32.058 136.099 32.823 136.399 33.7296 136.399C34.659 136.399 35.4183 136.104 36.0076 135.515C36.6196 134.903 36.9256 134.178 36.9256 133.339C36.9256 132.478 36.6196 131.752 36.0076 131.163C35.373 130.562 34.6136 130.262 33.7296 130.262ZM41.6076 126.607H44.3276V139H41.6076V126.607ZM54.231 135.413V135.702H48.57C48.57 136.235 48.7286 136.66 49.046 136.977C49.2953 137.226 49.6693 137.351 50.168 137.351C50.508 137.351 50.8026 137.283 51.052 137.147C51.2673 137.022 51.426 136.852 51.528 136.637H54.129C53.959 137.249 53.653 137.77 53.211 138.201C52.4856 138.904 51.4543 139.255 50.117 139.255C48.791 139.255 47.7426 138.87 46.972 138.099C46.224 137.351 45.85 136.393 45.85 135.226C45.85 134.002 46.2296 133.022 46.989 132.285C47.7483 131.548 48.7853 131.18 50.1 131.18C51.3126 131.18 52.2873 131.526 53.024 132.217C53.8286 132.988 54.231 134.053 54.231 135.413ZM48.655 134.138H51.732C51.6526 133.809 51.5053 133.537 51.29 133.322C51.018 133.05 50.644 132.914 50.168 132.914C49.7033 132.914 49.335 133.05 49.063 133.322C48.8363 133.571 48.7003 133.843 48.655 134.138ZM55.8019 126.607H58.5219V134.138L61.0889 131.401H64.7779L61.1909 134.903L65.0669 139H61.2929L58.5219 135.889V139H55.8019V126.607ZM65.32 138.371L66.289 136.484C66.629 136.733 66.9917 136.92 67.377 137.045C67.7284 137.17 68.0797 137.232 68.431 137.232C68.7484 137.232 68.9807 137.164 69.128 137.028C69.2187 136.937 69.264 136.818 69.264 136.671C69.264 136.524 69.2187 136.41 69.128 136.331C69.0374 136.24 68.7994 136.15 68.414 136.059L67.7 135.889C67.0994 135.753 66.6574 135.532 66.374 135.226C66.0454 134.875 65.881 134.438 65.881 133.917C65.881 133.18 66.119 132.563 66.595 132.064C67.1844 131.452 68.091 131.146 69.315 131.146C70.1537 131.146 70.964 131.31 71.746 131.639L70.828 133.373C70.284 133.124 69.808 132.999 69.4 132.999C69.1507 132.999 68.941 133.05 68.771 133.152C68.6124 133.243 68.533 133.367 68.533 133.526C68.533 133.719 68.6407 133.86 68.856 133.951C68.9467 133.985 69.0884 134.025 69.281 134.07C69.4737 134.104 69.6324 134.138 69.757 134.172L70.25 134.308C70.7374 134.444 71.1114 134.642 71.372 134.903C71.7574 135.266 71.95 135.77 71.95 136.416C71.95 137.187 71.695 137.816 71.185 138.303C70.5504 138.938 69.6154 139.255 68.38 139.255C67.3034 139.255 66.2834 138.96 65.32 138.371ZM79.2317 132.132V131.401H81.9517V139H79.2317V138.167C78.7104 138.892 77.9227 139.255 76.8687 139.255C75.8034 139.255 74.8911 138.853 74.1317 138.048C73.4064 137.277 73.0437 136.348 73.0437 135.26C73.0437 134.013 73.4347 132.999 74.2167 132.217C74.9307 131.503 75.8431 131.146 76.9537 131.146C77.8831 131.146 78.6424 131.475 79.2317 132.132ZM77.5657 133.458C77.1124 133.458 76.7157 133.622 76.3757 133.951C76.0131 134.302 75.8317 134.716 75.8317 135.192C75.8317 135.691 76.0074 136.104 76.3587 136.433C76.7214 136.773 77.1294 136.943 77.5827 136.943C78.0474 136.943 78.4554 136.767 78.8067 136.416C79.1467 136.076 79.3167 135.668 79.3167 135.192C79.3167 134.705 79.1411 134.291 78.7897 133.951C78.4384 133.622 78.0304 133.458 77.5657 133.458ZM83.8253 139V131.401H86.5453V132.353C87.112 131.605 87.9167 131.231 88.9593 131.231C89.9113 131.231 90.6593 131.503 91.2033 132.047C91.498 132.342 91.6907 132.648 91.7813 132.965C91.872 133.282 91.9173 133.685 91.9173 134.172V139H89.1973V135.158C89.1973 134.41 89.084 133.917 88.8573 133.679C88.6533 133.464 88.3643 133.356 87.9903 133.356C87.5823 133.356 87.248 133.475 86.9873 133.713C86.6927 133.985 86.5453 134.387 86.5453 134.92V139H83.8253ZM102.372 126.607V139H99.6517V138.167C99.085 138.892 98.32 139.255 97.3567 139.255C96.3027 139.255 95.413 138.904 94.6877 138.201C93.8717 137.408 93.4637 136.399 93.4637 135.175C93.4637 133.951 93.8773 132.948 94.7047 132.166C95.4187 131.486 96.314 131.146 97.3907 131.146C98.286 131.146 99.0397 131.475 99.6517 132.132V126.607H102.372ZM97.9857 136.943C98.4163 136.943 98.8073 136.79 99.1587 136.484C99.544 136.133 99.7367 135.702 99.7367 135.192C99.7367 134.739 99.5667 134.331 99.2267 133.968C98.9093 133.628 98.4957 133.458 97.9857 133.458C97.5097 133.458 97.1073 133.622 96.7787 133.951C96.4273 134.302 96.2517 134.733 96.2517 135.243C96.2517 135.685 96.4273 136.082 96.7787 136.433C97.1187 136.773 97.521 136.943 97.9857 136.943ZM104.245 139V131.401H106.965V132.642C107.215 132.166 107.572 131.815 108.036 131.588C108.41 131.384 108.881 131.282 109.447 131.282C109.47 131.282 109.498 131.288 109.532 131.299C109.566 131.299 109.623 131.305 109.702 131.316C109.793 131.316 109.889 131.316 109.991 131.316V133.883C109.629 133.702 109.238 133.611 108.818 133.611C108.286 133.611 107.872 133.747 107.577 134.019C107.169 134.393 106.965 134.971 106.965 135.753V139H104.245Z" fill="white"/>
<path d="M37.5742 12.524C36.8635 12.524 36.2395 12.7753 35.7022 13.278C35.1648 13.7807 34.8962 14.4133 34.8962 15.176C34.8962 15.8693 35.1648 16.4847 35.7022 17.022C36.2222 17.542 36.8462 17.802 37.5742 17.802C38.2848 17.802 38.9002 17.542 39.4202 17.022C39.9575 16.5193 40.2262 15.904 40.2262 15.176C40.2262 14.448 39.9575 13.8153 39.4202 13.278C38.8828 12.7753 38.2675 12.524 37.5742 12.524ZM42.7482 10.912C43.9442 12.0733 44.5422 13.4947 44.5422 15.176C44.5422 16.8573 43.9442 18.2873 42.7482 19.466C41.4482 20.7487 39.7148 21.39 37.5482 21.39C35.3988 21.39 33.6742 20.7487 32.3742 19.466C31.1782 18.2873 30.5802 16.8573 30.5802 15.176C30.5802 13.4947 31.1782 12.0733 32.3742 10.912C33.6915 9.62933 35.4162 8.988 37.5482 8.988C39.6628 8.988 41.3962 9.62933 42.7482 10.912ZM46.9427 21V9.378H51.1027V11.276C51.484 10.548 52.03 10.0107 52.7407 9.664C53.3127 9.352 54.032 9.196 54.8987 9.196C54.9334 9.196 54.9767 9.20467 55.0287 9.222C55.0807 9.222 55.1674 9.23067 55.2887 9.248C55.4274 9.248 55.5747 9.248 55.7307 9.248V13.174C55.176 12.8967 54.578 12.758 53.9367 12.758C53.122 12.758 52.4894 12.966 52.0387 13.382C51.4147 13.954 51.1027 14.838 51.1027 16.034V21H46.9427ZM64.9302 12.784H62.5642V21H58.4042V12.784H57.0782V9.378H58.4042V5.556H62.5642V9.378H64.9302V12.784ZM66.4935 21V2.046H70.6535V10.834C71.0348 10.3487 71.4681 9.96733 71.9535 9.69C72.6121 9.30867 73.4095 9.118 74.3455 9.118C75.8015 9.118 76.9455 9.534 77.7775 10.366C78.2455 10.834 78.5401 11.3193 78.6615 11.822C78.8001 12.3073 78.8695 12.9053 78.8695 13.616V21H74.7095V15.124C74.7095 13.9973 74.5361 13.2433 74.1895 12.862C73.8948 12.5327 73.4528 12.368 72.8635 12.368C72.2221 12.368 71.7195 12.5327 71.3555 12.862C70.8875 13.2953 70.6535 13.928 70.6535 14.76V21H66.4935ZM87.7206 12.524C87.01 12.524 86.386 12.7753 85.8486 13.278C85.3113 13.7807 85.0426 14.4133 85.0426 15.176C85.0426 15.8693 85.3113 16.4847 85.8486 17.022C86.3686 17.542 86.9926 17.802 87.7206 17.802C88.4313 17.802 89.0466 17.542 89.5666 17.022C90.104 16.5193 90.3726 15.904 90.3726 15.176C90.3726 14.448 90.104 13.8153 89.5666 13.278C89.0293 12.7753 88.414 12.524 87.7206 12.524ZM92.8946 10.912C94.0906 12.0733 94.6886 13.4947 94.6886 15.176C94.6886 16.8573 94.0906 18.2873 92.8946 19.466C91.5946 20.7487 89.8613 21.39 87.6946 21.39C85.5453 21.39 83.8206 20.7487 82.5206 19.466C81.3246 18.2873 80.7266 16.8573 80.7266 15.176C80.7266 13.4947 81.3246 12.0733 82.5206 10.912C83.838 9.62933 85.5626 8.988 87.6946 8.988C89.8093 8.988 91.5426 9.62933 92.8946 10.912ZM110.245 2.046V21H106.085V19.726C105.219 20.8353 104.049 21.39 102.575 21.39C100.963 21.39 99.6025 20.8527 98.4932 19.778C97.2452 18.5647 96.6212 17.022 96.6212 15.15C96.6212 13.278 97.2538 11.744 98.5192 10.548C99.6112 9.508 100.981 8.988 102.627 8.988C103.997 8.988 105.149 9.49067 106.085 10.496V2.046H110.245ZM103.537 17.854C104.196 17.854 104.794 17.62 105.331 17.152C105.921 16.6147 106.215 15.956 106.215 15.176C106.215 14.4827 105.955 13.8587 105.435 13.304C104.95 12.784 104.317 12.524 103.537 12.524C102.809 12.524 102.194 12.7753 101.691 13.278C101.154 13.8153 100.885 14.474 100.885 15.254C100.885 15.93 101.154 16.5367 101.691 17.074C102.211 17.594 102.827 17.854 103.537 17.854ZM119.637 12.524C118.926 12.524 118.302 12.7753 117.765 13.278C117.227 13.7807 116.959 14.4133 116.959 15.176C116.959 15.8693 117.227 16.4847 117.765 17.022C118.285 17.542 118.909 17.802 119.637 17.802C120.347 17.802 120.963 17.542 121.483 17.022C122.02 16.5193 122.289 15.904 122.289 15.176C122.289 14.448 122.02 13.8153 121.483 13.278C120.945 12.7753 120.33 12.524 119.637 12.524ZM124.811 10.912C126.007 12.0733 126.605 13.4947 126.605 15.176C126.605 16.8573 126.007 18.2873 124.811 19.466C123.511 20.7487 121.777 21.39 119.611 21.39C117.461 21.39 115.737 20.7487 114.437 19.466C113.241 18.2873 112.643 16.8573 112.643 15.176C112.643 13.4947 113.241 12.0733 114.437 10.912C115.754 9.62933 117.479 8.988 119.611 8.988C121.725 8.988 123.459 9.62933 124.811 10.912ZM129.005 21V9.378H133.165V10.834C134.032 9.69 135.263 9.118 136.857 9.118C138.313 9.118 139.457 9.534 140.289 10.366C140.74 10.8167 141.035 11.2847 141.173 11.77C141.312 12.2553 141.381 12.8707 141.381 13.616V21H137.221V15.124C137.221 13.98 137.048 13.226 136.701 12.862C136.389 12.5327 135.947 12.368 135.375 12.368C134.751 12.368 134.24 12.55 133.841 12.914C133.391 13.33 133.165 13.9453 133.165 14.76V21H129.005ZM151.182 12.784H148.816V21H144.656V12.784H143.33V9.378H144.656V5.556H148.816V9.378H151.182V12.784ZM152.745 9.378H156.905V21H152.745V9.378ZM153.161 6.206C152.711 5.738 152.485 5.18333 152.485 4.542C152.485 3.90067 152.711 3.35467 153.161 2.904C153.629 2.436 154.184 2.202 154.825 2.202C155.467 2.202 156.013 2.436 156.463 2.904C156.931 3.35467 157.165 3.90067 157.165 4.542C157.165 5.18333 156.931 5.738 156.463 6.206C156.013 6.65667 155.467 6.882 154.825 6.882C154.184 6.882 153.629 6.65667 153.161 6.206ZM159 20.038L160.482 17.152C161.002 17.5333 161.557 17.8193 162.146 18.01C162.683 18.2007 163.221 18.296 163.758 18.296C164.243 18.296 164.599 18.192 164.824 17.984C164.963 17.8453 165.032 17.6633 165.032 17.438C165.032 17.2127 164.963 17.0393 164.824 16.918C164.685 16.7793 164.321 16.6407 163.732 16.502L162.64 16.242C161.721 16.034 161.045 15.696 160.612 15.228C160.109 14.6907 159.858 14.0233 159.858 13.226C159.858 12.0993 160.222 11.1547 160.95 10.392C161.851 9.456 163.238 8.988 165.11 8.988C166.393 8.988 167.632 9.23933 168.828 9.742L167.424 12.394C166.592 12.0127 165.864 11.822 165.24 11.822C164.859 11.822 164.538 11.9 164.278 12.056C164.035 12.1947 163.914 12.3853 163.914 12.628C163.914 12.9227 164.079 13.1393 164.408 13.278C164.547 13.33 164.763 13.3907 165.058 13.46C165.353 13.512 165.595 13.564 165.786 13.616L166.54 13.824C167.285 14.032 167.857 14.3353 168.256 14.734C168.845 15.2887 169.14 16.06 169.14 17.048C169.14 18.2267 168.75 19.1887 167.97 19.934C166.999 20.9047 165.569 21.39 163.68 21.39C162.033 21.39 160.473 20.9393 159 20.038ZM178.249 12.784H175.883V21H171.723V12.784H170.397V9.378H171.723V5.556H175.883V9.378H178.249V12.784Z" fill="#77ABA5"/>
<path d="M119.708 127.661V132.336L123.312 127.661H126.95L122.445 133.033L127.358 139H123.55L119.708 134.087V139H116.767V127.661H119.708ZM132.052 133.458C131.587 133.458 131.179 133.622 130.828 133.951C130.476 134.28 130.301 134.693 130.301 135.192C130.301 135.645 130.476 136.048 130.828 136.399C131.168 136.739 131.576 136.909 132.052 136.909C132.516 136.909 132.919 136.739 133.259 136.399C133.61 136.07 133.786 135.668 133.786 135.192C133.786 134.716 133.61 134.302 133.259 133.951C132.907 133.622 132.505 133.458 132.052 133.458ZM135.435 132.404C136.217 133.163 136.608 134.093 136.608 135.192C136.608 136.291 136.217 137.226 135.435 137.997C134.585 138.836 133.451 139.255 132.035 139.255C130.629 139.255 129.502 138.836 128.652 137.997C127.87 137.226 127.479 136.291 127.479 135.192C127.479 134.093 127.87 133.163 128.652 132.404C129.513 131.565 130.641 131.146 132.035 131.146C133.417 131.146 134.551 131.565 135.435 132.404ZM137.701 138.371L138.67 136.484C139.01 136.733 139.373 136.92 139.758 137.045C140.11 137.17 140.461 137.232 140.812 137.232C141.13 137.232 141.362 137.164 141.509 137.028C141.6 136.937 141.645 136.818 141.645 136.671C141.645 136.524 141.6 136.41 141.509 136.331C141.419 136.24 141.181 136.15 140.795 136.059L140.081 135.889C139.481 135.753 139.039 135.532 138.755 135.226C138.427 134.875 138.262 134.438 138.262 133.917C138.262 133.18 138.5 132.563 138.976 132.064C139.566 131.452 140.472 131.146 141.696 131.146C142.535 131.146 143.345 131.31 144.127 131.639L143.209 133.373C142.665 133.124 142.189 132.999 141.781 132.999C141.532 132.999 141.322 133.05 141.152 133.152C140.994 133.243 140.914 133.367 140.914 133.526C140.914 133.719 141.022 133.86 141.237 133.951C141.328 133.985 141.47 134.025 141.662 134.07C141.855 134.104 142.014 134.138 142.138 134.172L142.631 134.308C143.119 134.444 143.493 134.642 143.753 134.903C144.139 135.266 144.331 135.77 144.331 136.416C144.331 137.187 144.076 137.816 143.566 138.303C142.932 138.938 141.997 139.255 140.761 139.255C139.685 139.255 138.665 138.96 137.701 138.371ZM150.287 133.628H148.74V139H146.02V133.628H145.153V131.401H146.02V128.902H148.74V131.401H150.287V133.628ZM159.367 135.413V135.702H153.706C153.706 136.235 153.865 136.66 154.182 136.977C154.431 137.226 154.805 137.351 155.304 137.351C155.644 137.351 155.939 137.283 156.188 137.147C156.403 137.022 156.562 136.852 156.664 136.637H159.265C159.095 137.249 158.789 137.77 158.347 138.201C157.622 138.904 156.59 139.255 155.253 139.255C153.927 139.255 152.879 138.87 152.108 138.099C151.36 137.351 150.986 136.393 150.986 135.226C150.986 134.002 151.366 133.022 152.125 132.285C152.884 131.548 153.921 131.18 155.236 131.18C156.449 131.18 157.423 131.526 158.16 132.217C158.965 132.988 159.367 134.053 159.367 135.413ZM153.791 134.138H156.868C156.789 133.809 156.641 133.537 156.426 133.322C156.154 133.05 155.78 132.914 155.304 132.914C154.839 132.914 154.471 133.05 154.199 133.322C153.972 133.571 153.836 133.843 153.791 134.138ZM160.938 139V131.401H163.658V132.353C164.225 131.605 165.029 131.231 166.072 131.231C167.024 131.231 167.772 131.503 168.316 132.047C168.611 132.342 168.803 132.648 168.894 132.965C168.985 133.282 169.03 133.685 169.03 134.172V139H166.31V135.158C166.31 134.41 166.197 133.917 165.97 133.679C165.766 133.464 165.477 133.356 165.103 133.356C164.695 133.356 164.361 133.475 164.1 133.713C163.805 133.985 163.658 134.387 163.658 134.92V139H160.938ZM170.882 126.607H173.602V134.138L176.169 131.401H179.858L176.271 134.903L180.147 139H176.373L173.602 135.889V139H170.882V126.607ZM185.027 133.458C184.563 133.458 184.155 133.622 183.803 133.951C183.452 134.28 183.276 134.693 183.276 135.192C183.276 135.645 183.452 136.048 183.803 136.399C184.143 136.739 184.551 136.909 185.027 136.909C185.492 136.909 185.894 136.739 186.234 136.399C186.586 136.07 186.761 135.668 186.761 135.192C186.761 134.716 186.586 134.302 186.234 133.951C185.883 133.622 185.481 133.458 185.027 133.458ZM188.41 132.404C189.192 133.163 189.583 134.093 189.583 135.192C189.583 136.291 189.192 137.226 188.41 137.997C187.56 138.836 186.427 139.255 185.01 139.255C183.605 139.255 182.477 138.836 181.627 137.997C180.845 137.226 180.454 136.291 180.454 135.192C180.454 134.093 180.845 133.163 181.627 132.404C182.489 131.565 183.616 131.146 185.01 131.146C186.393 131.146 187.526 131.565 188.41 132.404Z" fill="white"/>
</svg>
