<svg width="207" height="146" viewBox="0 0 207 146" fill="none" xmlns="http://www.w3.org/2000/svg">
<path d="M105.482 39.704C105.482 50.7547 101.562 60.0507 93.7223 67.592C85.957 74.984 76.1383 78.68 64.2663 78.68C52.3943 78.68 42.5756 74.984 34.8103 67.592C26.9703 60.0507 23.0503 50.7547 23.0503 39.704C23.0503 34.552 24.021 29.512 25.9623 24.584C27.9783 19.656 30.9276 15.3627 34.8103 11.704C42.5756 4.312 52.3943 0.615995 64.2663 0.615995C76.1383 0.615995 85.957 4.312 93.7223 11.704C97.605 15.3627 100.517 19.656 102.458 24.584C104.474 29.512 105.482 34.552 105.482 39.704ZM64.2663 19.432C58.1436 19.432 53.1036 21.4107 49.1463 25.368C45.189 29.2507 43.2103 34.1413 43.2103 40.04C43.2103 45.4907 45.189 50.12 49.1463 53.928C53.253 57.8853 58.293 59.864 64.2663 59.864C70.389 59.864 75.3916 57.9227 79.2743 54.04C83.3063 50.008 85.3223 45.2293 85.3223 39.704C85.3223 34.0293 83.3063 29.2507 79.2743 25.368C75.093 21.4107 70.0903 19.432 64.2663 19.432ZM137.224 2.29599V33.096L160.968 2.29599H184.936L155.256 37.688L187.624 77H162.536L137.224 44.632V77H117.848V2.29599H137.224Z" fill="white"/>
<path d="M39.9856 99.339C39.9856 101.016 39.3906 102.427 38.2006 103.572C37.022 104.694 35.5316 105.255 33.7296 105.255C31.9276 105.255 30.4373 104.694 29.2586 103.572C28.0686 102.427 27.4736 101.016 27.4736 99.339C27.4736 98.557 27.621 97.792 27.9156 97.044C28.2216 96.296 28.6693 95.6443 29.2586 95.089C30.4373 93.967 31.9276 93.406 33.7296 93.406C35.5316 93.406 37.022 93.967 38.2006 95.089C38.79 95.6443 39.232 96.296 39.5266 97.044C39.8326 97.792 39.9856 98.557 39.9856 99.339ZM33.7296 96.262C32.8003 96.262 32.0353 96.5623 31.4346 97.163C30.834 97.7523 30.5336 98.4947 30.5336 99.39C30.5336 100.217 30.834 100.92 31.4346 101.498C32.058 102.099 32.823 102.399 33.7296 102.399C34.659 102.399 35.4183 102.104 36.0076 101.515C36.6196 100.903 36.9256 100.178 36.9256 99.339C36.9256 98.4777 36.6196 97.7523 36.0076 97.163C35.373 96.5623 34.6136 96.262 33.7296 96.262ZM41.6076 92.607H44.3276V105H41.6076V92.607ZM54.231 101.413V101.702H48.57C48.57 102.235 48.7286 102.66 49.046 102.977C49.2953 103.226 49.6693 103.351 50.168 103.351C50.508 103.351 50.8026 103.283 51.052 103.147C51.2673 103.022 51.426 102.852 51.528 102.637H54.129C53.959 103.249 53.653 103.77 53.211 104.201C52.4856 104.904 51.4543 105.255 50.117 105.255C48.791 105.255 47.7426 104.87 46.972 104.099C46.224 103.351 45.85 102.393 45.85 101.226C45.85 100.002 46.2296 99.0217 46.989 98.285C47.7483 97.5483 48.7853 97.18 50.1 97.18C51.3126 97.18 52.2873 97.5257 53.024 98.217C53.8286 98.9877 54.231 100.053 54.231 101.413ZM48.655 100.138H51.732C51.6526 99.8093 51.5053 99.5373 51.29 99.322C51.018 99.05 50.644 98.914 50.168 98.914C49.7033 98.914 49.335 99.05 49.063 99.322C48.8363 99.5713 48.7003 99.8433 48.655 100.138ZM55.8019 92.607H58.5219V100.138L61.0889 97.401H64.7779L61.1909 100.903L65.0669 105H61.2929L58.5219 101.889V105H55.8019V92.607ZM65.32 104.371L66.289 102.484C66.629 102.733 66.9917 102.92 67.377 103.045C67.7284 103.17 68.0797 103.232 68.431 103.232C68.7484 103.232 68.9807 103.164 69.128 103.028C69.2187 102.937 69.264 102.818 69.264 102.671C69.264 102.524 69.2187 102.41 69.128 102.331C69.0374 102.24 68.7994 102.15 68.414 102.059L67.7 101.889C67.0994 101.753 66.6574 101.532 66.374 101.226C66.0454 100.875 65.881 100.438 65.881 99.917C65.881 99.1803 66.119 98.5627 66.595 98.064C67.1844 97.452 68.091 97.146 69.315 97.146C70.1537 97.146 70.964 97.3103 71.746 97.639L70.828 99.373C70.284 99.1237 69.808 98.999 69.4 98.999C69.1507 98.999 68.941 99.05 68.771 99.152C68.6124 99.2427 68.533 99.3673 68.533 99.526C68.533 99.7187 68.6407 99.8603 68.856 99.951C68.9467 99.985 69.0884 100.025 69.281 100.07C69.4737 100.104 69.6324 100.138 69.757 100.172L70.25 100.308C70.7374 100.444 71.1114 100.642 71.372 100.903C71.7574 101.266 71.95 101.77 71.95 102.416C71.95 103.187 71.695 103.816 71.185 104.303C70.5504 104.938 69.6154 105.255 68.38 105.255C67.3034 105.255 66.2834 104.96 65.32 104.371ZM79.2317 98.132V97.401H81.9517V105H79.2317V104.167C78.7104 104.892 77.9227 105.255 76.8687 105.255C75.8034 105.255 74.8911 104.853 74.1317 104.048C73.4064 103.277 73.0437 102.348 73.0437 101.26C73.0437 100.013 73.4347 98.999 74.2167 98.217C74.9307 97.503 75.8431 97.146 76.9537 97.146C77.8831 97.146 78.6424 97.4747 79.2317 98.132ZM77.5657 99.458C77.1124 99.458 76.7157 99.6223 76.3757 99.951C76.0131 100.302 75.8317 100.716 75.8317 101.192C75.8317 101.691 76.0074 102.104 76.3587 102.433C76.7214 102.773 77.1294 102.943 77.5827 102.943C78.0474 102.943 78.4554 102.767 78.8067 102.416C79.1467 102.076 79.3167 101.668 79.3167 101.192C79.3167 100.705 79.1411 100.291 78.7897 99.951C78.4384 99.6223 78.0304 99.458 77.5657 99.458ZM83.8253 105V97.401H86.5453V98.353C87.112 97.605 87.9167 97.231 88.9593 97.231C89.9113 97.231 90.6593 97.503 91.2033 98.047C91.498 98.3417 91.6907 98.6477 91.7813 98.965C91.872 99.2823 91.9173 99.6847 91.9173 100.172V105H89.1973V101.158C89.1973 100.41 89.084 99.917 88.8573 99.679C88.6533 99.4637 88.3643 99.356 87.9903 99.356C87.5823 99.356 87.248 99.475 86.9873 99.713C86.6927 99.985 86.5453 100.387 86.5453 100.92V105H83.8253ZM102.372 92.607V105H99.6517V104.167C99.085 104.892 98.32 105.255 97.3567 105.255C96.3027 105.255 95.413 104.904 94.6877 104.201C93.8717 103.408 93.4637 102.399 93.4637 101.175C93.4637 99.951 93.8773 98.948 94.7047 98.166C95.4187 97.486 96.314 97.146 97.3907 97.146C98.286 97.146 99.0397 97.4747 99.6517 98.132V92.607H102.372ZM97.9857 102.943C98.4163 102.943 98.8073 102.79 99.1587 102.484C99.544 102.133 99.7367 101.702 99.7367 101.192C99.7367 100.739 99.5667 100.331 99.2267 99.968C98.9093 99.628 98.4957 99.458 97.9857 99.458C97.5097 99.458 97.1073 99.6223 96.7787 99.951C96.4273 100.302 96.2517 100.733 96.2517 101.243C96.2517 101.685 96.4273 102.082 96.7787 102.433C97.1187 102.773 97.521 102.943 97.9857 102.943ZM104.245 105V97.401H106.965V98.642C107.215 98.166 107.572 97.8147 108.036 97.588C108.41 97.384 108.881 97.282 109.447 97.282C109.47 97.282 109.498 97.2877 109.532 97.299C109.566 97.299 109.623 97.3047 109.702 97.316C109.793 97.316 109.889 97.316 109.991 97.316V99.883C109.629 99.7017 109.238 99.611 108.818 99.611C108.286 99.611 107.872 99.747 107.577 100.019C107.169 100.393 106.965 100.971 106.965 101.753V105H104.245Z" fill="white"/>
<path d="M119.708 93.661V98.336L123.312 93.661H126.95L122.445 99.033L127.358 105H123.55L119.708 100.087V105H116.767V93.661H119.708ZM132.052 99.458C131.587 99.458 131.179 99.6223 130.828 99.951C130.476 100.28 130.301 100.693 130.301 101.192C130.301 101.645 130.476 102.048 130.828 102.399C131.168 102.739 131.576 102.909 132.052 102.909C132.516 102.909 132.919 102.739 133.259 102.399C133.61 102.07 133.786 101.668 133.786 101.192C133.786 100.716 133.61 100.302 133.259 99.951C132.907 99.6223 132.505 99.458 132.052 99.458ZM135.435 98.404C136.217 99.1633 136.608 100.093 136.608 101.192C136.608 102.291 136.217 103.226 135.435 103.997C134.585 104.836 133.451 105.255 132.035 105.255C130.629 105.255 129.502 104.836 128.652 103.997C127.87 103.226 127.479 102.291 127.479 101.192C127.479 100.093 127.87 99.1633 128.652 98.404C129.513 97.5653 130.641 97.146 132.035 97.146C133.417 97.146 134.551 97.5653 135.435 98.404ZM137.701 104.371L138.67 102.484C139.01 102.733 139.373 102.92 139.758 103.045C140.11 103.17 140.461 103.232 140.812 103.232C141.13 103.232 141.362 103.164 141.509 103.028C141.6 102.937 141.645 102.818 141.645 102.671C141.645 102.524 141.6 102.41 141.509 102.331C141.419 102.24 141.181 102.15 140.795 102.059L140.081 101.889C139.481 101.753 139.039 101.532 138.755 101.226C138.427 100.875 138.262 100.438 138.262 99.917C138.262 99.1803 138.5 98.5627 138.976 98.064C139.566 97.452 140.472 97.146 141.696 97.146C142.535 97.146 143.345 97.3103 144.127 97.639L143.209 99.373C142.665 99.1237 142.189 98.999 141.781 98.999C141.532 98.999 141.322 99.05 141.152 99.152C140.994 99.2427 140.914 99.3673 140.914 99.526C140.914 99.7187 141.022 99.8603 141.237 99.951C141.328 99.985 141.47 100.025 141.662 100.07C141.855 100.104 142.014 100.138 142.138 100.172L142.631 100.308C143.119 100.444 143.493 100.642 143.753 100.903C144.139 101.266 144.331 101.77 144.331 102.416C144.331 103.187 144.076 103.816 143.566 104.303C142.932 104.938 141.997 105.255 140.761 105.255C139.685 105.255 138.665 104.96 137.701 104.371ZM150.287 99.628H148.74V105H146.02V99.628H145.153V97.401H146.02V94.902H148.74V97.401H150.287V99.628ZM159.367 101.413V101.702H153.706C153.706 102.235 153.865 102.66 154.182 102.977C154.431 103.226 154.805 103.351 155.304 103.351C155.644 103.351 155.939 103.283 156.188 103.147C156.403 103.022 156.562 102.852 156.664 102.637H159.265C159.095 103.249 158.789 103.77 158.347 104.201C157.622 104.904 156.59 105.255 155.253 105.255C153.927 105.255 152.879 104.87 152.108 104.099C151.36 103.351 150.986 102.393 150.986 101.226C150.986 100.002 151.366 99.0217 152.125 98.285C152.884 97.5483 153.921 97.18 155.236 97.18C156.449 97.18 157.423 97.5257 158.16 98.217C158.965 98.9877 159.367 100.053 159.367 101.413ZM153.791 100.138H156.868C156.789 99.8093 156.641 99.5373 156.426 99.322C156.154 99.05 155.78 98.914 155.304 98.914C154.839 98.914 154.471 99.05 154.199 99.322C153.972 99.5713 153.836 99.8433 153.791 100.138ZM160.938 105V97.401H163.658V98.353C164.225 97.605 165.029 97.231 166.072 97.231C167.024 97.231 167.772 97.503 168.316 98.047C168.611 98.3417 168.803 98.6477 168.894 98.965C168.985 99.2823 169.03 99.6847 169.03 100.172V105H166.31V101.158C166.31 100.41 166.197 99.917 165.97 99.679C165.766 99.4637 165.477 99.356 165.103 99.356C164.695 99.356 164.361 99.475 164.1 99.713C163.805 99.985 163.658 100.387 163.658 100.92V105H160.938ZM170.882 92.607H173.602V100.138L176.169 97.401H179.858L176.271 100.903L180.147 105H176.373L173.602 101.889V105H170.882V92.607ZM185.027 99.458C184.563 99.458 184.155 99.6223 183.803 99.951C183.452 100.28 183.276 100.693 183.276 101.192C183.276 101.645 183.452 102.048 183.803 102.399C184.143 102.739 184.551 102.909 185.027 102.909C185.492 102.909 185.894 102.739 186.234 102.399C186.586 102.07 186.761 101.668 186.761 101.192C186.761 100.716 186.586 100.302 186.234 99.951C185.883 99.6223 185.481 99.458 185.027 99.458ZM188.41 98.404C189.192 99.1633 189.583 100.093 189.583 101.192C189.583 102.291 189.192 103.226 188.41 103.997C187.56 104.836 186.427 105.255 185.01 105.255C183.605 105.255 182.477 104.836 181.627 103.997C180.845 103.226 180.454 102.291 180.454 101.192C180.454 100.093 180.845 99.1633 181.627 98.404C182.489 97.5653 183.616 97.146 185.01 97.146C186.393 97.146 187.526 97.5653 188.41 98.404Z" fill="white"/>
</svg>
